<svg xmlns="http://www.w3.org/2000/svg" style="display: none;">
    <!-- Partea stângă a foarfecei -->
    <symbol id="left-scissor" viewBox="0 0 168 84">
        <path fill="#BFBB50" d="M58.1,54.3l-14.7-7.5l-15-41.3c-1,10.2-0.4,18.5,1.9,24.7c3,8.1,5.7,15,8.2,20.6l10.6,3.7
            c1.6,0.6,2.7,2.2,2.7,3.9v1.3c-1.2,2.8-1.3,6.3-0.1,9.6C54,75.5,60,79,65.2,77.2s7.6-8.5,5.3-14.7C68.3,56.7,63,53.3,58.1,54.3z
             M64.4,75.3c-4.2,1.5-9-1.5-10.9-6.7S53.4,58,57.6,56.5s9,1.5,10.9,6.7S68.5,73.8,64.4,75.3z"/>
    </symbol>

    <!-- Partea dreaptă a foarfecei, reflectată în oglindă -->
    <symbol id="right-scissor" viewBox="0 0 168 84">
        <path fill="#BFBB50" d="M25.9,54.3l14.7-7.5l15-41.3c1,10.2,0.4,18.5-1.9,24.7c-3,8.1-5.7,15-8.2,20.6l-10.6,3.7
            c-1.6,0.6-2.7,2.2-2.7,3.9v1.3c1.2,2.8,1.3,6.3,0.1,9.6C30,75.5,24,79,18.8,77.2s-7.6-8.5-5.3-14.7C15.7,56.7,21,53.3,25.9,54.3z
             M19.6,75.3c4.2,1.5,9-1.5,10.9-6.7c1.9-5.2,0.1-10.6-4.1-12.1s-9,1.5-10.9,6.7S15.5,73.8,19.6,75.3z"/>
    </symbol>
</svg>


